<?xml version="1.0" standalone="no"?>
<!DOCTYPE svg PUBLIC "-//W3C//DTD SVG 20010904//EN"
 "http://www.w3.org/TR/2001/REC-SVG-20010904/DTD/svg10.dtd">
<svg version="1.0" xmlns="http://www.w3.org/2000/svg"
 width="200.000000pt" height="200.000000pt" viewBox="0 0 200.000000 200.000000"
 preserveAspectRatio="xMidYMid meet">
<metadata>
Created by potrace 1.11, written by Peter Selinger 2001-2013
</metadata>
<g transform="translate(0.000000,200.000000) scale(0.100000,-0.100000)"
fill="#000000" stroke="none">
<path d="M880 1994 c-83 -13 -192 -39 -196 -46 -3 -4 -12 -8 -21 -8 -30 0
-168 -73 -243 -128 -223 -165 -359 -381 -405 -641 -13 -75 -13 -279 0 -351 20
-115 111 -336 154 -374 11 -11 21 -23 21 -28 0 -11 48 -67 115 -133 130 -130
284 -215 474 -261 97 -24 315 -26 416 -4 174 37 287 90 420 196 96 77 116 97
189 193 54 70 136 224 136 253 0 8 4 18 9 24 34 34 58 334 38 474 -26 183
-124 379 -266 533 -39 42 -180 151 -233 181 -73 41 -188 84 -269 102 -70 15
-284 26 -339 18z"/>
</g>
</svg>
